<svg width="75" height="52" viewBox="0 0 75 52" fill="none" xmlns="http://www.w3.org/2000/svg">
<path d="M51.6722 8.01788C49.5176 6.61302 47.9624 4.36524 47.4773 1.74493C47.3725 1.17879 47.3149 0.596143 47.3149 0H40.4381L40.4271 27.5599C40.3115 30.6461 37.7714 33.1232 34.6575 33.1232C33.6897 33.1232 32.7784 32.8812 31.976 32.459C30.136 31.4907 28.8768 29.562 28.8768 27.3426C28.8768 24.155 31.4702 21.5617 34.6575 21.5617C35.2525 21.5617 35.8232 21.6598 36.3631 21.829V14.8085C35.8044 14.7324 35.2367 14.6848 34.6575 14.6848C27.678 14.6848 22 20.3631 22 27.3426C22 31.6248 24.1395 35.4144 27.4036 37.7059C29.4595 39.1493 31.9604 40 34.6575 40C41.637 40 47.3149 34.3221 47.3149 27.3426V13.3673C50.0121 15.3032 53.3166 16.444 56.8823 16.444V9.56719C54.9616 9.56719 53.1726 8.99616 51.6722 8.01788" fill="url(#paint0_linear_1_11)"/>
<path d="M5 36H5.61771C7.82685 36 9.61771 37.7909 9.61771 40V51H64.4017V40C64.4017 37.7909 66.1926 36 68.4017 36H69.635C71.8441 36 73.635 37.7909 73.635 40V47C73.635 49.2091 71.8441 51 69.635 51H64.4017H9.61771H5C2.79086 51 1 49.2091 1 47V40C1 37.7909 2.79086 36 5 36Z" fill="#3A54DE" fill-opacity="0.99"/>
<path d="M64.4017 51H69.635C71.8442 51 73.635 49.2091 73.635 47V40C73.635 37.7909 71.8441 36 69.635 36H68.4017C66.1926 36 64.4017 37.7909 64.4017 40V51ZM64.4017 51H9.61771M9.61771 51H5C2.79086 51 1 49.2091 1 47V40C1 37.7909 2.79086 36 5 36H5.61771C7.82685 36 9.61771 37.7909 9.61771 40V51Z" stroke="#3A54DE"/>
<path d="M9.61771 50.3333L64.68 50.3333" stroke="#3A54DE"/>
<path d="M9.61771 48.3333L64.68 48.3333" stroke="#3A54DE"/>
<path d="M9.61771 46.3333L64.68 46.3333" stroke="#3A54DE"/>
<path d="M9.61771 44.3333L64.68 44.3333" stroke="#3A54DE"/>
<path d="M9.61771 49.6667L64.68 49.6667" stroke="#3A54DE"/>
<path d="M9.61771 47.6667L64.68 47.6667" stroke="#3A54DE"/>
<path d="M9.61771 45.6667L64.68 45.6667" stroke="#3A54DE"/>
<path d="M9.61771 43.6667L64.68 43.6667" stroke="#3A54DE"/>
<path d="M9.61771 49L64.68 49" stroke="#3A54DE"/>
<path d="M9.61771 47L64.68 47" stroke="#3A54DE"/>
<path d="M9.61771 45L64.68 45" stroke="#3A54DE"/>
<path d="M9.61771 43L64.68 43" stroke="#3A54DE"/>
<defs>
<linearGradient id="paint0_linear_1_11" x1="47.5" y1="-1.86186e-06" x2="24" y2="40" gradientUnits="userSpaceOnUse">
<stop stop-color="#D31DF0"/>
<stop offset="1" stop-color="#3A54DE" stop-opacity="0.99"/>
</linearGradient>
</defs>
</svg>
